<svg version="1.1" id="Layer_1" xmlns="http://www.w3.org/2000/svg" xmlns:xlink="http://www.w3.org/1999/xlink" x="0px" y="0px"
	 width="100%" viewBox="0 0 1200 300" enable-background="new 0 0 1200 300" xml:space="preserve">
<path fill="#FFFFFF" opacity="1.000000" stroke="none" 
	d="
M868.000000,301.000000 
	C578.666687,301.000000 289.833344,301.000000 1.000000,301.000000 
	C1.000000,201.000000 1.000000,101.000000 1.000000,1.000000 
	C401.000000,1.000000 801.000000,1.000000 1201.000000,1.000000 
	C1201.000000,101.000000 1201.000000,201.000000 1201.000000,301.000000 
	C1090.166626,301.000000 979.333313,301.000000 868.000000,301.000000 
M231.968338,95.173546 
	C216.540527,94.312050 215.305725,95.548546 216.028381,111.919197 
	C216.018982,138.467499 216.290665,165.019974 215.895493,191.562531 
	C215.655899,207.655914 217.870697,207.742935 233.776276,206.914154 
	C246.216141,206.942947 258.656036,206.999557 271.095886,206.989258 
	C277.727905,206.983765 280.013000,204.473572 280.001801,197.420715 
	C279.990662,190.394394 277.738464,188.035904 270.933624,188.003784 
	C259.323792,187.948975 247.713791,187.920059 236.018021,186.961578 
	C236.066574,162.648560 236.115143,138.335541 237.078400,114.006233 
	C248.906860,114.002502 260.736084,114.075928 272.563416,113.957649 
	C277.396973,113.909309 279.854980,111.035011 279.999298,105.877609 
	C280.200073,98.703941 278.275208,95.153900 273.313171,95.104286 
	C259.832245,94.969498 246.347443,95.223076 231.968338,95.173546 
M354.613342,174.499756 
	C354.613342,184.589722 354.613342,194.679703 354.613342,204.754349 
	C372.094452,204.754349 388.948456,205.540970 405.702362,204.581131 
	C435.303528,202.885223 458.107574,179.204132 458.999725,150.499420 
	C459.792114,125.004837 443.822632,95.928261 409.048035,92.966217 
	C391.357758,91.459381 373.469879,92.270470 355.671021,92.060272 
	C355.421722,92.057327 355.168396,92.400360 354.613800,92.800804 
	C354.613800,119.564209 354.613800,146.531967 354.613342,174.499756 
M916.162781,206.188446 
	C928.867859,207.328857 940.825867,205.715027 950.569153,196.477036 
	C961.906860,185.727295 965.304016,166.199448 958.854492,149.510757 
	C953.501770,135.660202 941.566040,127.678886 926.841675,129.191086 
	C921.072266,129.783630 915.513306,132.425201 909.418823,134.266388 
	C909.418823,120.433411 909.418823,106.343544 909.418823,92.123634 
	C904.264526,92.123634 899.654724,92.123634 895.048889,92.123634 
	C894.851440,92.811020 894.598022,93.282143 894.597534,93.753510 
	C894.563599,128.578110 894.511902,163.402908 894.669678,198.226761 
	C894.676086,199.644501 896.426331,201.939224 897.780762,202.312180 
	C903.524231,203.893677 909.425232,204.903366 916.162781,206.188446 
M738.428589,91.888809 
	C735.351257,91.888809 732.273926,91.888809 729.386475,91.888809 
	C729.386475,130.070648 729.386475,167.446762 729.386475,204.734589 
	C734.382446,204.734589 738.984924,204.734589 744.003418,204.734589 
	C744.003418,189.017334 744.262268,173.559601 743.860046,158.119095 
	C743.723206,152.864761 745.527161,149.360443 749.340820,146.230377 
	C754.827576,141.727142 760.850647,139.144165 767.748291,142.014053 
	C774.644165,144.883209 776.296692,151.264740 776.871277,158.001251 
	C776.969971,159.159012 776.892944,160.331970 776.893005,161.497910 
	C776.893250,174.323349 776.884216,187.148804 776.902893,199.974213 
	C776.905212,201.566162 777.054138,203.157898 777.131531,204.678879 
	C782.201355,204.678879 786.777222,204.678879 791.103455,204.678879 
	C791.103455,187.076279 791.422119,169.793549 790.979797,152.530304 
	C790.728333,142.716278 786.191467,134.807465 776.639893,130.965942 
	C766.521606,126.896477 757.072144,128.687546 748.531189,135.395981 
	C747.175903,136.460495 745.881775,137.602936 743.809998,139.336243 
	C743.809998,122.955307 743.809998,107.566986 743.809998,91.889023 
	C742.014587,91.889023 740.703064,91.889023 738.428589,91.888809 
M483.453278,205.501480 
	C492.820831,207.606964 501.159332,204.997849 508.728058,199.621658 
	C513.697693,206.251434 519.898987,207.972519 527.265015,205.013550 
	C535.216858,201.819244 535.555786,201.250275 534.658875,192.307617 
	C533.856567,192.688416 533.117859,193.009491 532.405823,193.381546 
	C525.143066,197.176407 524.039917,196.482025 524.002014,188.212601 
	C523.944641,175.719986 523.954590,163.225525 523.720459,150.735886 
	C523.579895,143.238052 520.194031,137.280548 513.889893,133.192047 
	C503.290192,126.317696 484.849091,127.745560 475.438141,136.147415 
	C474.266968,137.193008 472.859741,138.707901 472.762756,140.089615 
	C472.431305,144.812698 472.635742,149.573364 472.635742,155.174469 
	C474.717773,153.231674 476.005188,151.954041 477.372040,150.767929 
	C483.509674,145.442032 490.382965,142.158936 498.781769,143.037354 
	C504.634369,143.649460 508.292267,147.290710 509.061249,153.409073 
	C509.898590,160.071396 509.879150,160.103790 502.077820,162.713379 
	C498.609406,163.873596 494.982544,164.690598 491.696869,166.235870 
	C486.922485,168.481262 481.833588,170.580002 477.863586,173.913971 
	C466.727722,183.265808 469.393738,199.222870 483.453278,205.501480 
M673.295959,206.116959 
	C679.077209,204.304764 684.858459,202.492584 690.962769,200.579147 
	C695.503052,206.916962 702.549988,208.309265 711.220093,203.842484 
	C716.999207,200.865112 717.698853,199.009262 715.463623,192.523651 
	C714.872803,192.840240 714.291931,193.164108 713.700134,193.466690 
	C706.567444,197.113647 705.431396,196.421646 705.388000,188.530579 
	C705.320190,176.214325 705.251953,163.897812 705.108032,151.582306 
	C704.989136,141.400909 699.615967,133.180695 689.666382,130.898621 
	C682.919128,129.351059 675.403320,129.105637 668.593811,130.316681 
	C655.567566,132.633392 651.105225,141.270721 654.466248,153.098526 
	C660.127014,149.989395 665.701599,145.792252 671.977722,143.732651 
	C682.800171,140.181137 689.846375,145.174652 690.855286,155.525986 
	C691.182312,158.880966 690.206116,160.408508 686.880249,161.615097 
	C678.329468,164.717316 669.553650,167.632858 661.690247,172.077927 
	C653.342224,176.796982 650.705078,185.744476 653.302917,194.131699 
	C655.737732,201.992188 662.285217,206.105774 673.295959,206.116959 
M850.497986,203.069977 
	C853.457397,201.113770 856.416748,199.157562 859.680725,197.000015 
	C859.855469,199.896088 860.000122,202.293839 860.146729,204.723541 
	C865.118286,204.723541 869.698486,204.723541 874.520996,204.723541 
	C874.520996,180.035263 874.520996,155.629974 874.520996,130.875214 
	C869.627747,130.875214 864.924622,130.875214 859.887329,130.875214 
	C859.887329,146.362289 859.887573,161.500488 859.887268,176.638687 
	C859.887085,185.570831 855.185059,191.553207 846.545959,193.614487 
	C835.906067,196.153152 828.945618,191.951569 827.603943,181.209000 
	C826.701660,173.984619 827.083557,166.591156 827.024597,159.272263 
	C826.948608,149.837082 827.006165,140.400833 827.006165,130.883545 
	C821.716003,130.883545 816.991394,130.883545 812.539124,130.883545 
	C812.539124,148.540878 812.128601,165.849060 812.644348,183.129593 
	C813.271118,204.129456 835.153992,211.398178 850.497986,203.069977 
M594.601807,140.348206 
	C594.041321,141.231506 593.480835,142.114807 592.418030,143.789612 
	C597.334778,143.789612 601.391968,143.789612 605.875854,143.789612 
	C605.875854,146.130386 605.873413,147.923828 605.876221,149.717270 
	C605.894897,161.703171 605.741821,173.692596 605.986572,185.673904 
	C606.196960,195.970810 611.901489,203.231018 621.701660,205.560287 
	C629.667664,207.453644 637.609375,206.766541 645.044739,203.094162 
	C646.233826,202.506897 647.496216,200.838425 647.621399,199.561615 
	C647.971436,195.990952 647.743225,192.363586 647.743225,189.252289 
	C642.036804,190.541473 636.669006,192.330917 631.182190,192.841110 
	C624.959351,193.419754 621.417175,190.147003 620.974060,183.867981 
	C620.447815,176.412079 620.520020,168.911240 620.421265,161.428726 
	C620.345337,155.676971 620.406128,149.923401 620.406128,143.610611 
	C628.659363,143.610611 636.224121,143.610611 643.857422,143.610611 
	C643.857422,139.058319 643.857422,135.085480 643.857422,130.527023 
	C636.147583,130.527023 628.578003,130.527023 620.412415,130.527023 
	C620.412415,125.268616 620.412415,120.566055 620.412415,115.863495 
	C619.942322,115.606445 619.472290,115.349396 619.002197,115.092346 
	C611.043884,123.336182 603.085571,131.580017 594.601807,140.348206 
M543.595032,136.097748 
	C541.457520,138.284134 539.320068,140.470520 536.125916,143.737701 
	C541.725830,143.737701 545.771423,143.737701 550.248657,143.737701 
	C550.248657,146.111771 550.225830,147.907089 550.252319,149.701675 
	C550.433777,162.004807 550.382751,174.317810 550.890320,186.607666 
	C551.301392,196.560730 557.229797,203.645721 566.833862,205.713852 
	C574.618042,207.390152 582.429260,206.790497 589.683350,203.122482 
	C590.873413,202.520706 592.154968,200.887497 592.279419,199.621429 
	C592.630737,196.047226 592.402222,192.416031 592.402222,189.106537 
	C586.970337,190.461777 581.969482,192.343246 576.835083,192.837341 
	C569.688904,193.525040 566.170654,190.510361 565.556335,183.301559 
	C564.936462,176.028870 565.201538,168.678375 565.138123,161.361435 
	C565.088135,155.593994 565.128052,149.825745 565.128052,143.524246 
	C573.353455,143.524246 580.916809,143.524246 588.544312,143.524246 
	C588.544312,139.024643 588.544312,135.083038 588.544312,130.576065 
	C580.775085,130.576065 573.203796,130.576065 565.071411,130.576065 
	C565.071411,125.336632 565.071411,120.645416 565.071411,115.954208 
	C564.639221,115.721344 564.206970,115.488480 563.774780,115.255608 
	C557.215149,122.036011 550.655518,128.816406 543.595032,136.097748 
M284.997833,177.297256 
	C285.023102,185.940979 286.913452,187.997955 294.835785,188.002350 
	C303.149200,188.006989 304.999969,186.028961 305.000977,177.119003 
	C305.003052,158.972305 305.008484,140.825607 304.997681,122.678909 
	C304.993195,115.161377 302.781372,113.007713 295.136993,112.998329 
	C287.150879,112.988525 285.004059,115.073616 285.000549,122.902885 
	C284.992523,140.716614 284.997925,158.530350 284.997833,177.297256 
M255.400864,131.468353 
	C247.654373,134.761459 243.844986,140.982498 245.157852,148.196060 
	C246.316589,154.562820 252.000320,159.677414 258.256409,159.982956 
	C266.377136,160.379593 273.035614,153.600601 273.024994,145.198486 
	C273.014618,136.966873 264.922241,129.235672 255.400864,131.468353 
z"/>
<path fill="#0E7F8D" opacity="1.000000" stroke="none" 
	d="
M354.613586,173.999741 
	C354.613800,146.531967 354.613800,119.564209 354.613800,92.800804 
	C355.168396,92.400360 355.421722,92.057327 355.671021,92.060272 
	C373.469879,92.270470 391.357758,91.459381 409.048035,92.966217 
	C443.822632,95.928261 459.792114,125.004837 458.999725,150.499420 
	C458.107574,179.204132 435.303528,202.885223 405.702362,204.581131 
	C388.948456,205.540970 372.094452,204.754349 354.613342,204.754349 
	C354.613342,194.679703 354.613342,184.589722 354.613586,173.999741 
M434.850555,123.728050 
	C426.902496,113.372620 416.458374,107.366013 403.398499,106.821556 
	C392.683929,106.374863 381.935913,106.730507 371.008087,106.730507 
	C371.008087,133.998138 371.006195,161.143326 371.019653,188.288513 
	C371.019989,188.921188 371.192902,189.553787 371.259064,190.006805 
	C381.554413,190.006805 391.679993,190.485962 401.746704,189.919388 
	C435.604706,188.013794 453.259369,153.243668 434.850555,123.728050 
z"/>
<path fill="#1CBACA" opacity="1.000000" stroke="none" 
	d="
M915.715698,206.155212 
	C909.425232,204.903366 903.524231,203.893677 897.780762,202.312180 
	C896.426331,201.939224 894.676086,199.644501 894.669678,198.226761 
	C894.511902,163.402908 894.563599,128.578110 894.597534,93.753510 
	C894.598022,93.282143 894.851440,92.811020 895.048889,92.123634 
	C899.654724,92.123634 904.264526,92.123634 909.418823,92.123634 
	C909.418823,106.343544 909.418823,120.433411 909.418823,134.266388 
	C915.513306,132.425201 921.072266,129.783630 926.841675,129.191086 
	C941.566040,127.678886 953.501770,135.660202 958.854492,149.510757 
	C965.304016,166.199448 961.906860,185.727295 950.569153,196.477036 
	C940.825867,205.715027 928.867859,207.328857 915.715698,206.155212 
M909.269897,161.537994 
	C909.269897,168.196640 909.270935,174.855301 909.269592,181.513947 
	C909.267639,190.900467 909.266907,190.900497 918.657104,192.314957 
	C931.034485,194.179398 940.000977,189.755463 944.588806,179.520767 
	C949.406372,168.773300 946.749146,154.164856 938.515442,147.290176 
	C932.106201,141.938858 925.051392,141.985077 917.429077,144.756424 
	C909.830566,147.519119 908.203735,152.940155 909.267578,160.056015 
	C909.291931,160.218826 909.270325,160.388489 909.269897,161.537994 
z"/>
<path fill="#1CBBCA" opacity="1.000000" stroke="none" 
	d="
M738.910034,91.888916 
	C740.703064,91.889023 742.014587,91.889023 743.809998,91.889023 
	C743.809998,107.566986 743.809998,122.955307 743.809998,139.336243 
	C745.881775,137.602936 747.175903,136.460495 748.531189,135.395981 
	C757.072144,128.687546 766.521606,126.896477 776.639893,130.965942 
	C786.191467,134.807465 790.728333,142.716278 790.979797,152.530304 
	C791.422119,169.793549 791.103455,187.076279 791.103455,204.678879 
	C786.777222,204.678879 782.201355,204.678879 777.131531,204.678879 
	C777.054138,203.157898 776.905212,201.566162 776.902893,199.974213 
	C776.884216,187.148804 776.893250,174.323349 776.893005,161.497910 
	C776.892944,160.331970 776.969971,159.159012 776.871277,158.001251 
	C776.296692,151.264740 774.644165,144.883209 767.748291,142.014053 
	C760.850647,139.144165 754.827576,141.727142 749.340820,146.230377 
	C745.527161,149.360443 743.723206,152.864761 743.860046,158.119095 
	C744.262268,173.559601 744.003418,189.017334 744.003418,204.734589 
	C738.984924,204.734589 734.382446,204.734589 729.386475,204.734589 
	C729.386475,167.446762 729.386475,130.070648 729.386475,91.888809 
	C732.273926,91.888809 735.351257,91.888809 738.910034,91.888916 
z"/>
<path fill="#11818E" opacity="1.000000" stroke="none" 
	d="
M483.070038,205.350769 
	C469.393738,199.222870 466.727722,183.265808 477.863586,173.913971 
	C481.833588,170.580002 486.922485,168.481262 491.696869,166.235870 
	C494.982544,164.690598 498.609406,163.873596 502.077820,162.713379 
	C509.879150,160.103790 509.898590,160.071396 509.061249,153.409073 
	C508.292267,147.290710 504.634369,143.649460 498.781769,143.037354 
	C490.382965,142.158936 483.509674,145.442032 477.372040,150.767929 
	C476.005188,151.954041 474.717773,153.231674 472.635742,155.174469 
	C472.635742,149.573364 472.431305,144.812698 472.762756,140.089615 
	C472.859741,138.707901 474.266968,137.193008 475.438141,136.147415 
	C484.849091,127.745560 503.290192,126.317696 513.889893,133.192047 
	C520.194031,137.280548 523.579895,143.238052 523.720459,150.735886 
	C523.954590,163.225525 523.944641,175.719986 524.002014,188.212601 
	C524.039917,196.482025 525.143066,197.176407 532.405823,193.381546 
	C533.117859,193.009491 533.856567,192.688416 534.658875,192.307617 
	C535.555786,201.250275 535.216858,201.819244 527.265015,205.013550 
	C519.898987,207.972519 513.697693,206.251434 508.728058,199.621658 
	C501.159332,204.997849 492.820831,207.606964 483.070038,205.350769 
M501.325073,195.113586 
	C503.960358,193.079453 508.471863,191.355011 508.868622,188.951401 
	C509.931366,182.512848 509.230927,175.783279 509.230927,168.716644 
	C507.405457,169.276413 506.124908,169.556351 504.935638,170.054321 
	C500.953674,171.721680 496.849792,173.184250 493.077240,175.246048 
	C486.795868,178.678879 484.592834,183.805389 486.533295,189.235672 
	C488.458984,194.624619 493.112122,196.654114 501.325073,195.113586 
z"/>
<path fill="#10808D" opacity="1.000000" stroke="none" 
	d="
M672.840820,206.118881 
	C662.285217,206.105774 655.737732,201.992188 653.302917,194.131699 
	C650.705078,185.744476 653.342224,176.796982 661.690247,172.077927 
	C669.553650,167.632858 678.329468,164.717316 686.880249,161.615097 
	C690.206116,160.408508 691.182312,158.880966 690.855286,155.525986 
	C689.846375,145.174652 682.800171,140.181137 671.977722,143.732651 
	C665.701599,145.792252 660.127014,149.989395 654.466248,153.098526 
	C651.105225,141.270721 655.567566,132.633392 668.593811,130.316681 
	C675.403320,129.105637 682.919128,129.351059 689.666382,130.898621 
	C699.615967,133.180695 704.989136,141.400909 705.108032,151.582306 
	C705.251953,163.897812 705.320190,176.214325 705.388000,188.530579 
	C705.431396,196.421646 706.567444,197.113647 713.700134,193.466690 
	C714.291931,193.164108 714.872803,192.840240 715.463623,192.523651 
	C717.698853,199.009262 716.999207,200.865112 711.220093,203.842484 
	C702.549988,208.309265 695.503052,206.916962 690.962769,200.579147 
	C684.858459,202.492584 679.077209,204.304764 672.840820,206.118881 
M689.860535,190.918091 
	C690.339294,183.653717 690.818054,176.389328 691.296753,169.124954 
	C690.795166,168.827377 690.293518,168.529800 689.791870,168.232224 
	C683.731689,171.187454 677.458191,173.783554 671.681580,177.216034 
	C667.366516,179.780090 666.216492,185.076050 668.095154,189.600052 
	C669.975586,194.128540 673.659546,196.588028 678.366516,195.729965 
	C682.128662,195.044174 685.629028,192.922256 689.860535,190.918091 
z"/>
<path fill="#1DBBCB" opacity="1.000000" stroke="none" 
	d="
M850.154175,203.225449 
	C835.153992,211.398178 813.271118,204.129456 812.644348,183.129593 
	C812.128601,165.849060 812.539124,148.540878 812.539124,130.883545 
	C816.991394,130.883545 821.716003,130.883545 827.006165,130.883545 
	C827.006165,140.400833 826.948608,149.837082 827.024597,159.272263 
	C827.083557,166.591156 826.701660,173.984619 827.603943,181.209000 
	C828.945618,191.951569 835.906067,196.153152 846.545959,193.614487 
	C855.185059,191.553207 859.887085,185.570831 859.887268,176.638687 
	C859.887573,161.500488 859.887329,146.362289 859.887329,130.875214 
	C864.924622,130.875214 869.627747,130.875214 874.520996,130.875214 
	C874.520996,155.629974 874.520996,180.035263 874.520996,204.723541 
	C869.698486,204.723541 865.118286,204.723541 860.146729,204.723541 
	C860.000122,202.293839 859.855469,199.896088 859.680725,197.000015 
	C856.416748,199.157562 853.457397,201.113770 850.154175,203.225449 
z"/>
<path fill="#11808E" opacity="1.000000" stroke="none" 
	d="
M594.864502,140.086029 
	C603.085571,131.580017 611.043884,123.336182 619.002197,115.092346 
	C619.472290,115.349396 619.942322,115.606445 620.412415,115.863495 
	C620.412415,120.566055 620.412415,125.268616 620.412415,130.527023 
	C628.578003,130.527023 636.147583,130.527023 643.857422,130.527023 
	C643.857422,135.085480 643.857422,139.058319 643.857422,143.610611 
	C636.224121,143.610611 628.659363,143.610611 620.406128,143.610611 
	C620.406128,149.923401 620.345337,155.676971 620.421265,161.428726 
	C620.520020,168.911240 620.447815,176.412079 620.974060,183.867981 
	C621.417175,190.147003 624.959351,193.419754 631.182190,192.841110 
	C636.669006,192.330917 642.036804,190.541473 647.743225,189.252289 
	C647.743225,192.363586 647.971436,195.990952 647.621399,199.561615 
	C647.496216,200.838425 646.233826,202.506897 645.044739,203.094162 
	C637.609375,206.766541 629.667664,207.453644 621.701660,205.560287 
	C611.901489,203.231018 606.196960,195.970810 605.986572,185.673904 
	C605.741821,173.692596 605.894897,161.703171 605.876221,149.717270 
	C605.873413,147.923828 605.875854,146.130386 605.875854,143.789612 
	C601.391968,143.789612 597.334778,143.789612 592.418030,143.789612 
	C593.480835,142.114807 594.041321,141.231506 594.864502,140.086029 
z"/>
<path fill="#13818E" opacity="1.000000" stroke="none" 
	d="
M543.845459,135.847290 
	C550.655518,128.816406 557.215149,122.036011 563.774780,115.255608 
	C564.206970,115.488480 564.639221,115.721344 565.071411,115.954208 
	C565.071411,120.645416 565.071411,125.336632 565.071411,130.576065 
	C573.203796,130.576065 580.775085,130.576065 588.544312,130.576065 
	C588.544312,135.083038 588.544312,139.024643 588.544312,143.524246 
	C580.916809,143.524246 573.353455,143.524246 565.128052,143.524246 
	C565.128052,149.825745 565.088135,155.593994 565.138123,161.361435 
	C565.201538,168.678375 564.936462,176.028870 565.556335,183.301559 
	C566.170654,190.510361 569.688904,193.525040 576.835083,192.837341 
	C581.969482,192.343246 586.970337,190.461777 592.402222,189.106537 
	C592.402222,192.416031 592.630737,196.047226 592.279419,199.621429 
	C592.154968,200.887497 590.873413,202.520706 589.683350,203.122482 
	C582.429260,206.790497 574.618042,207.390152 566.833862,205.713852 
	C557.229797,203.645721 551.301392,196.560730 550.890320,186.607666 
	C550.382751,174.317810 550.433777,162.004807 550.252319,149.701675 
	C550.225830,147.907089 550.248657,146.111771 550.248657,143.737701 
	C545.771423,143.737701 541.725830,143.737701 536.125916,143.737701 
	C539.320068,140.470520 541.457520,138.284134 543.845459,135.847290 
z"/>
<path fill="#1ABACA" opacity="1.000000" stroke="none" 
	d="
M236.163696,114.022530 
	C236.115143,138.335541 236.066574,162.648560 236.027313,187.894257 
	C235.524155,194.873444 237.722778,201.405121 232.843323,206.670090 
	C217.870697,207.742935 215.655899,207.655914 215.895493,191.562531 
	C216.290665,165.019974 216.018982,138.467499 216.456665,111.508156 
	C222.581375,115.766869 229.367630,113.437912 235.815826,114.054726 
	C235.932159,114.082558 236.163696,114.022530 236.163696,114.022530 
z"/>
<path fill="#0E7F8C" opacity="1.000000" stroke="none" 
	d="
M284.997864,176.820679 
	C284.997925,158.530350 284.992523,140.716614 285.000549,122.902885 
	C285.004059,115.073616 287.150879,112.988525 295.136993,112.998329 
	C302.781372,113.007713 304.993195,115.161377 304.997681,122.678909 
	C305.008484,140.825607 305.003052,158.972305 305.000977,177.119003 
	C304.999969,186.028961 303.149200,188.006989 294.835785,188.002350 
	C286.913452,187.997955 285.023102,185.940979 284.997864,176.820679 
z"/>
<path fill="#63D7E6" opacity="1.000000" stroke="none" 
	d="
M232.864182,95.322701 
	C246.347443,95.223076 259.832245,94.969498 273.313171,95.104286 
	C278.275208,95.153900 280.200073,98.703941 279.999298,105.877609 
	C279.854980,111.035011 277.396973,113.909309 272.563416,113.957649 
	C260.736084,114.075928 248.906860,114.002502 236.621048,114.014381 
	C236.163696,114.022530 235.932159,114.082558 235.923248,113.595894 
	C235.692413,107.044090 237.611954,100.611717 232.864182,95.322701 
z"/>
<path fill="#72D4DF" opacity="1.000000" stroke="none" 
	d="
M233.309799,206.792114 
	C237.722778,201.405121 235.524155,194.873444 236.070221,188.353592 
	C247.713791,187.920059 259.323792,187.948975 270.933624,188.003784 
	C277.738464,188.035904 279.990662,190.394394 280.001801,197.420715 
	C280.013000,204.473572 277.727905,206.983765 271.095886,206.989258 
	C258.656036,206.999557 246.216141,206.942947 233.309799,206.792114 
z"/>
<path fill="#969696" opacity="1.000000" stroke="none" 
	d="
M255.785278,131.345673 
	C264.922241,129.235672 273.014618,136.966873 273.024994,145.198486 
	C273.035614,153.600601 266.377136,160.379593 258.256409,159.982956 
	C252.000320,159.677414 246.316589,154.562820 245.157852,148.196060 
	C243.844986,140.982498 247.654373,134.761459 255.785278,131.345673 
z"/>
<path fill="#0DBED2" opacity="1.000000" stroke="none" 
	d="
M232.416260,95.248123 
	C237.611954,100.611717 235.692413,107.044090 235.806915,113.568062 
	C229.367630,113.437912 222.581375,115.766869 216.528931,111.043922 
	C215.305725,95.548546 216.540527,94.312050 232.416260,95.248123 
z"/>
<path fill="#FEFEFE" opacity="1.000000" stroke="none" 
	d="
M435.051361,124.028595 
	C453.259369,153.243668 435.604706,188.013794 401.746704,189.919388 
	C391.679993,190.485962 381.554413,190.006805 371.259064,190.006805 
	C371.192902,189.553787 371.019989,188.921188 371.019653,188.288513 
	C371.006195,161.143326 371.008087,133.998138 371.008087,106.730507 
	C381.935913,106.730507 392.683929,106.374863 403.398499,106.821556 
	C416.458374,107.366013 426.902496,113.372620 435.051361,124.028595 
z"/>
<path fill="#FAFDFE" opacity="1.000000" stroke="none" 
	d="
M909.270020,161.046478 
	C909.270325,160.388489 909.291931,160.218826 909.267578,160.056015 
	C908.203735,152.940155 909.830566,147.519119 917.429077,144.756424 
	C925.051392,141.985077 932.106201,141.938858 938.515442,147.290176 
	C946.749146,154.164856 949.406372,168.773300 944.588806,179.520767 
	C940.000977,189.755463 931.034485,194.179398 918.657104,192.314957 
	C909.266907,190.900497 909.267639,190.900467 909.269592,181.513947 
	C909.270935,174.855301 909.269897,168.196640 909.270020,161.046478 
z"/>
<path fill="#FBFCFC" opacity="1.000000" stroke="none" 
	d="
M500.939575,195.232269 
	C493.112122,196.654114 488.458984,194.624619 486.533295,189.235672 
	C484.592834,183.805389 486.795868,178.678879 493.077240,175.246048 
	C496.849792,173.184250 500.953674,171.721680 504.935638,170.054321 
	C506.124908,169.556351 507.405457,169.276413 509.230927,168.716644 
	C509.230927,175.783279 509.931366,182.512848 508.868622,188.951401 
	C508.471863,191.355011 503.960358,193.079453 500.939575,195.232269 
z"/>
<path fill="#F9FBFB" opacity="1.000000" stroke="none" 
	d="
M689.553040,191.177933 
	C685.629028,192.922256 682.128662,195.044174 678.366516,195.729965 
	C673.659546,196.588028 669.975586,194.128540 668.095154,189.600052 
	C666.216492,185.076050 667.366516,179.780090 671.681580,177.216034 
	C677.458191,173.783554 683.731689,171.187454 689.791870,168.232224 
	C690.293518,168.529800 690.795166,168.827377 691.296753,169.124954 
	C690.818054,176.389328 690.339294,183.653717 689.553040,191.177933 
z"/>
</svg>